<?xml version="1.0" encoding="UTF-8"?>
<!DOCTYPE svg PUBLIC "-//W3C//DTD SVG 1.1//EN" "http://www.w3.org/Graphics/SVG/1.1/DTD/svg11.dtd">
<svg xmlns="http://www.w3.org/2000/svg" version="1.1" width="2000px" height="2000px" style="shape-rendering:geometricPrecision; text-rendering:geometricPrecision; image-rendering:optimizeQuality; fill-rule:evenodd; clip-rule:evenodd" xmlns:xlink="http://www.w3.org/1999/xlink">
<g><path style="opacity:1" fill="#000000" d="M -0.5,-0.5 C 666.167,-0.5 1332.83,-0.5 1999.5,-0.5C 1999.5,666.167 1999.5,1332.83 1999.5,1999.5C 1332.83,1999.5 666.167,1999.5 -0.5,1999.5C -0.5,1860.5 -0.5,1721.5 -0.5,1582.5C 304.86,1513.58 606.693,1431.58 905,1336.5C 1013.57,1501.3 1121.9,1666.3 1230,1831.5C 1295.98,1645.72 1361.48,1459.72 1426.5,1273.5C 1617.02,1221.42 1807.69,1169.59 1998.5,1118C 1841.58,998.288 1684.74,878.455 1528,758.5C 1536.81,565.334 1545.98,372.167 1555.5,179C 1555.17,175.167 1554.83,171.333 1554.5,167.5C 1392.5,279.5 1230.5,391.5 1068.5,503.5C 884.167,433.5 699.833,363.5 515.5,293.5C 515.167,293.833 514.833,294.167 514.5,294.5C 571.791,483.346 628.291,672.346 684,861.5C 674.441,876.392 664.108,890.725 653,904.5C 604.533,960.634 552.366,1013.13 496.5,1062C 378.488,1165.04 256.155,1262.37 129.5,1354C 315.565,1257.99 495.565,1152.33 669.5,1037C 713.236,1006.8 755.903,975.129 797.5,942C 815.928,926.909 833.761,911.076 851,894.5C 850.989,890.775 850.323,887.108 849,883.5C 814.57,769.736 780.736,656.07 747.5,542.5C 861.168,586.25 975.001,629.583 1089,672.5C 1189.32,603.172 1289.65,533.839 1390,464.5C 1384.47,586.512 1378.8,708.512 1373,830.5C 1470.1,903.969 1566.94,977.803 1663.5,1052C 1546.25,1084.31 1428.92,1116.31 1311.5,1148C 1270.29,1262.97 1229.45,1378.13 1189,1493.5C 1122,1391.5 1055,1289.5 988,1187.5C 664.867,1317.38 335.367,1429.05 -0.5,1522.5C -0.5,1014.83 -0.5,507.167 -0.5,-0.5 Z"/></g>
<g><path style="opacity:1" fill="#fefefe" d="M -0.5,1582.5 C -0.5,1562.5 -0.5,1542.5 -0.5,1522.5C 335.367,1429.05 664.867,1317.38 988,1187.5C 1055,1289.5 1122,1391.5 1189,1493.5C 1229.45,1378.13 1270.29,1262.97 1311.5,1148C 1428.92,1116.31 1546.25,1084.31 1663.5,1052C 1566.94,977.803 1470.1,903.969 1373,830.5C 1378.8,708.512 1384.47,586.512 1390,464.5C 1289.65,533.839 1189.32,603.172 1089,672.5C 975.001,629.583 861.168,586.25 747.5,542.5C 780.736,656.07 814.57,769.736 849,883.5C 850.323,887.108 850.989,890.775 851,894.5C 833.761,911.076 815.928,926.909 797.5,942C 755.903,975.129 713.236,1006.8 669.5,1037C 495.565,1152.33 315.565,1257.99 129.5,1354C 256.155,1262.37 378.488,1165.04 496.5,1062C 552.366,1013.13 604.533,960.634 653,904.5C 664.108,890.725 674.441,876.392 684,861.5C 628.291,672.346 571.791,483.346 514.5,294.5C 514.833,294.167 515.167,293.833 515.5,293.5C 699.833,363.5 884.167,433.5 1068.5,503.5C 1230.5,391.5 1392.5,279.5 1554.5,167.5C 1554.83,171.333 1555.17,175.167 1555.5,179C 1545.98,372.167 1536.81,565.334 1528,758.5C 1684.74,878.455 1841.58,998.288 1998.5,1118C 1807.69,1169.59 1617.02,1221.42 1426.5,1273.5C 1361.48,1459.72 1295.98,1645.72 1230,1831.5C 1121.9,1666.3 1013.57,1501.3 905,1336.5C 606.693,1431.58 304.86,1513.58 -0.5,1582.5 Z"/></g>
</svg>
